<?xml version="1.0" encoding="utf-8"?>
<!-- Generator: Adobe Illustrator 16.0.3, SVG Export Plug-In . SVG Version: 6.00 Build 0)  -->
<!DOCTYPE svg PUBLIC "-//W3C//DTD SVG 1.1//EN" "http://www.w3.org/Graphics/SVG/1.1/DTD/svg11.dtd">
<svg version="1.1"
	 id="svg2" xmlns:dc="http://purl.org/dc/elements/1.1/" xmlns:cc="http://web.resource.org/cc/" xmlns:rdf="http://www.w3.org/1999/02/22-rdf-syntax-ns#" xmlns:svg="http://www.w3.org/2000/svg" xmlns:sodipodi="http://sodipodi.sourceforge.net/DTD/sodipodi-0.dtd" xmlns:inkscape="http://www.inkscape.org/namespaces/inkscape" sodipodi:docbase="C:\Documents and Settings\Molumen\Desktop" inkscape:output_extension="org.inkscape.output.svg.inkscape" sodipodi:docname="bugmenot_Movie_tape.svg" inkscape:version="0.44+devel" sodipodi:modified="true" sodipodi:version="0.32"
	 xmlns="http://www.w3.org/2000/svg" xmlns:xlink="http://www.w3.org/1999/xlink" x="0px" y="0px" width="610.426px"
	 height="142.395px" viewBox="0 0 610.426 142.395" enable-background="new 0 0 610.426 142.395" xml:space="preserve">
<sodipodi:namedview  inkscape:cy="105.37638" inkscape:cx="333.91315" inkscape:zoom="1.0132605" pagecolor="#ffffff" bordercolor="#666666" guidetolerance="10.0" objecttolerance="10.0" gridtolerance="10.0" borderopacity="1.0" id="base" inkscape:current-layer="svg2" inkscape:window-y="29" inkscape:window-x="22" inkscape:window-height="850" inkscape:pageopacity="0.0" inkscape:pageshadow="2" inkscape:window-width="1113">
	</sodipodi:namedview>
<path id="rect10" stroke="#1F1A17" stroke-width="0.5518" d="M0,2.277v4.838h5.044c1.523,0,2.749,1.161,2.749,2.603V22.18
	c0,1.441-1.226,2.603-2.749,2.603H0v95.103h6.176c1.523,0,2.749,1.161,2.749,2.604v12.431c0,1.442-1.226,2.603-2.749,2.603H0v4.012
	h631.341v-30.068h-15.165V33.356h15.165V2.277H0z M17.105,7.115h8.472c1.522,0,2.781,1.161,2.781,2.603V22.18
	c0,1.441-1.258,2.603-2.781,2.603h-8.472c-1.523,0-2.749-1.161-2.749-2.603V9.717C14.357,8.276,15.583,7.115,17.105,7.115z
	 M37.638,7.115h8.504c1.523,0,2.749,1.161,2.749,2.603V22.18c0,1.441-1.225,2.603-2.749,2.603h-8.504
	c-1.523,0-2.749-1.161-2.749-2.603V9.717C34.89,8.276,36.115,7.115,37.638,7.115z M58.203,7.115h8.472
	c1.522,0,2.748,1.161,2.748,2.603V22.18c0,1.441-1.226,2.603-2.748,2.603h-8.472c-1.523,0-2.749-1.161-2.749-2.603V9.717
	C55.455,8.276,56.68,7.115,58.203,7.115z M78.736,7.115h8.504c1.523,0,2.749,1.161,2.749,2.603V22.18
	c0,1.441-1.225,2.603-2.749,2.603h-8.504c-1.523,0-2.748-1.161-2.748-2.603V9.717C75.988,8.276,77.213,7.115,78.736,7.115z
	 M99.301,7.115h8.472c1.522,0,2.748,1.161,2.748,2.603V22.18c0,1.441-1.226,2.603-2.748,2.603h-8.472
	c-1.522,0-2.749-1.161-2.749-2.603V9.717C96.552,8.276,97.778,7.115,99.301,7.115z M119.833,7.115h8.504
	c1.523,0,2.748,1.161,2.748,2.603V22.18c0,1.441-1.225,2.603-2.748,2.603h-8.504c-1.523,0-2.748-1.161-2.748-2.603V9.717
	C117.085,8.276,118.311,7.115,119.833,7.115z M140.398,7.115h8.472c1.522,0,2.749,1.161,2.749,2.603V22.18
	c0,1.441-1.226,2.603-2.749,2.603h-8.472c-1.522,0-2.748-1.161-2.748-2.603V9.717C137.65,8.276,138.876,7.115,140.398,7.115z
	 M160.932,7.115h8.504c1.523,0,2.749,1.161,2.749,2.603V22.18c0,1.441-1.226,2.603-2.749,2.603h-8.504
	c-1.523,0-2.749-1.161-2.749-2.603V9.717C158.183,8.276,159.409,7.115,160.932,7.115z M181.497,7.115h8.472
	c1.523,0,2.749,1.161,2.749,2.603V22.18c0,1.441-1.226,2.603-2.749,2.603h-8.472c-1.523,0-2.781-1.161-2.781-2.603V9.717
	C178.716,8.276,179.974,7.115,181.497,7.115z M202.029,7.115h8.504c1.523,0,2.749,1.161,2.749,2.603V22.18
	c0,1.441-1.226,2.603-2.749,2.603h-8.504c-1.523,0-2.749-1.161-2.749-2.603V9.717C199.281,8.276,200.506,7.115,202.029,7.115z
	 M222.562,7.115h8.504c1.523,0,2.749,1.161,2.749,2.603V22.18c0,1.441-1.225,2.603-2.749,2.603h-8.504
	c-1.523,0-2.749-1.161-2.749-2.603V9.717C219.813,8.276,221.039,7.115,222.562,7.115z M243.127,7.115h8.504
	c1.522,0,2.749,1.161,2.749,2.603V22.18c0,1.441-1.226,2.603-2.749,2.603h-8.504c-1.523,0-2.749-1.161-2.749-2.603V9.717
	C240.378,8.276,241.604,7.115,243.127,7.115z M263.66,7.115h8.504c1.523,0,2.749,1.161,2.749,2.603V22.18
	c0,1.441-1.225,2.603-2.749,2.603h-8.504c-1.523,0-2.749-1.161-2.749-2.603V9.717C260.911,8.276,262.137,7.115,263.66,7.115z
	 M284.225,7.115h8.504c1.522,0,2.749,1.161,2.749,2.603V22.18c0,1.441-1.226,2.603-2.749,2.603h-8.504
	c-1.523,0-2.749-1.161-2.749-2.603V9.717C281.476,8.276,282.702,7.115,284.225,7.115z M304.757,7.115h8.504
	c1.522,0,2.748,1.161,2.748,2.603V22.18c0,1.441-1.226,2.603-2.748,2.603h-8.504c-1.522,0-2.749-1.161-2.749-2.603V9.717
	C302.009,8.276,303.235,7.115,304.757,7.115z M325.322,7.115h8.505c1.522,0,2.748,1.161,2.748,2.603V22.18
	c0,1.441-1.226,2.603-2.748,2.603h-8.505c-1.522,0-2.748-1.161-2.748-2.603V9.717C322.574,8.276,323.8,7.115,325.322,7.115z
	 M345.855,7.115h8.504c1.522,0,2.749,1.161,2.749,2.603V22.18c0,1.441-1.227,2.603-2.749,2.603h-8.504
	c-1.523,0-2.748-1.161-2.748-2.603V9.717C343.107,8.276,344.332,7.115,345.855,7.115z M366.421,7.115h8.504
	c1.522,0,2.748,1.161,2.748,2.603V22.18c0,1.441-1.226,2.603-2.748,2.603h-8.504c-1.523,0-2.749-1.161-2.749-2.603V9.717
	C363.672,8.276,364.897,7.115,366.421,7.115z M386.953,7.115h8.504c1.522,0,2.749,1.161,2.749,2.603V22.18
	c0,1.441-1.227,2.603-2.749,2.603h-8.504c-1.523,0-2.748-1.161-2.748-2.603V9.717C384.205,8.276,385.43,7.115,386.953,7.115z
	 M407.519,7.115h8.504c1.522,0,2.748,1.161,2.748,2.603V22.18c0,1.441-1.226,2.603-2.748,2.603h-8.504
	c-1.523,0-2.749-1.161-2.749-2.603V9.717C404.77,8.276,405.995,7.115,407.519,7.115z M428.051,7.115h8.504
	c1.523,0,2.749,1.161,2.749,2.603V22.18c0,1.441-1.226,2.603-2.749,2.603h-8.504c-1.523,0-2.748-1.161-2.748-2.603V9.717
	C425.303,8.276,426.527,7.115,428.051,7.115z M448.616,7.115h8.504c1.522,0,2.748,1.161,2.748,2.603V22.18
	c0,1.441-1.226,2.603-2.748,2.603h-8.504c-1.523,0-2.749-1.161-2.749-2.603V9.717C445.867,8.276,447.093,7.115,448.616,7.115z
	 M469.148,7.115h8.504c1.523,0,2.749,1.161,2.749,2.603V22.18c0,1.441-1.226,2.603-2.749,2.603h-8.504
	c-1.522,0-2.748-1.161-2.748-2.603V9.717C466.4,8.276,467.626,7.115,469.148,7.115z M489.714,7.115h8.472
	c1.522,0,2.748,1.161,2.748,2.603V22.18c0,1.441-1.226,2.603-2.748,2.603h-8.472c-1.523,0-2.749-1.161-2.749-2.603V9.717
	C486.965,8.276,488.19,7.115,489.714,7.115z M510.246,7.115h8.504c1.523,0,2.749,1.161,2.749,2.603V22.18
	c0,1.441-1.226,2.603-2.749,2.603h-8.504c-1.522,0-2.748-1.161-2.748-2.603V9.717C507.498,8.276,508.724,7.115,510.246,7.115z
	 M530.812,7.115h8.472c1.523,0,2.748,1.161,2.748,2.603V22.18c0,1.441-1.225,2.603-2.748,2.603h-8.472
	c-1.523,0-2.749-1.161-2.749-2.603V9.717C528.063,8.276,529.288,7.115,530.812,7.115z M551.344,7.115h8.504
	c1.523,0,2.749,1.161,2.749,2.603V22.18c0,1.441-1.226,2.603-2.749,2.603h-8.504c-1.522,0-2.748-1.161-2.748-2.603V9.717
	C548.596,8.276,549.821,7.115,551.344,7.115z M571.909,7.115h8.472c1.523,0,2.748,1.161,2.748,2.603V22.18
	c0,1.441-1.225,2.603-2.748,2.603h-8.472c-1.523,0-2.749-1.161-2.749-2.603V9.717C569.16,8.276,570.386,7.115,571.909,7.115z
	 M592.441,7.115h8.504c1.523,0,2.749,1.161,2.749,2.603V22.18c0,1.441-1.226,2.603-2.749,2.603h-8.504
	c-1.522,0-2.748-1.161-2.748-2.603V9.717C589.693,8.276,590.919,7.115,592.441,7.115z M612.975,7.115h8.504
	c1.523,0,2.748,1.161,2.748,2.603V22.18c0,1.441-1.225,2.603-2.748,2.603h-8.504c-1.523,0-2.748-1.161-2.748-2.603V9.717
	C610.227,8.276,611.451,7.115,612.975,7.115z M11.479,32.652H121.45v78.109H11.479V32.652z M132.477,32.652h109.971v78.109H132.477
	V32.652z M253.507,32.652h109.972v78.109H253.507V32.652z M374.537,32.652h109.938v78.109H374.537V32.652z M495.534,32.652h109.971
	v78.109H495.534V32.652z M18.237,119.885h8.471c1.523,0,2.749,1.161,2.749,2.604v12.431c0,1.442-1.226,2.603-2.749,2.603h-8.471
	c-1.523,0-2.749-1.16-2.749-2.603v-12.431C15.489,121.046,16.714,119.885,18.237,119.885z M38.77,119.885h8.504
	c1.523,0,2.749,1.161,2.749,2.604v12.431c0,1.442-1.226,2.603-2.749,2.603H38.77c-1.523,0-2.749-1.16-2.749-2.603v-12.431
	C36.021,121.046,37.247,119.885,38.77,119.885z M59.335,119.885h8.472c1.522,0,2.748,1.161,2.748,2.604v12.431
	c0,1.442-1.226,2.603-2.748,2.603h-8.472c-1.523,0-2.749-1.16-2.749-2.603v-12.431C56.586,121.046,57.812,119.885,59.335,119.885z
	 M79.868,119.885h8.504c1.523,0,2.749,1.161,2.749,2.604v12.431c0,1.442-1.226,2.603-2.749,2.603h-8.504
	c-1.523,0-2.748-1.16-2.748-2.603v-12.431C77.12,121.046,78.345,119.885,79.868,119.885z M100.433,119.885h8.472
	c1.522,0,2.748,1.161,2.748,2.604v12.431c0,1.442-1.226,2.603-2.748,2.603h-8.472c-1.522,0-2.749-1.16-2.749-2.603v-12.431
	C97.684,121.046,98.91,119.885,100.433,119.885z M120.965,119.885h8.504c1.523,0,2.748,1.161,2.748,2.604v12.431
	c0,1.442-1.225,2.603-2.748,2.603h-8.504c-1.523,0-2.748-1.16-2.748-2.603v-12.431C118.217,121.046,119.442,119.885,120.965,119.885
	z M141.499,119.885h8.504c1.522,0,2.749,1.161,2.749,2.604v12.431c0,1.442-1.226,2.603-2.749,2.603h-8.504
	c-1.523,0-2.749-1.16-2.749-2.603v-12.431C138.75,121.046,139.975,119.885,141.499,119.885z M162.063,119.885h8.504
	c1.523,0,2.748,1.161,2.748,2.604v12.431c0,1.442-1.225,2.603-2.748,2.603h-8.504c-1.523,0-2.749-1.16-2.749-2.603v-12.431
	C159.315,121.046,160.54,119.885,162.063,119.885z M182.596,119.885h8.504c1.522,0,2.749,1.161,2.749,2.604v12.431
	c0,1.442-1.226,2.603-2.749,2.603h-8.504c-1.523,0-2.749-1.16-2.749-2.603v-12.431C179.847,121.046,181.073,119.885,182.596,119.885
	z M203.161,119.885h8.504c1.523,0,2.748,1.161,2.748,2.604v12.431c0,1.442-1.225,2.603-2.748,2.603h-8.504
	c-1.523,0-2.749-1.16-2.749-2.603v-12.431C200.413,121.046,201.638,119.885,203.161,119.885z M223.694,119.885h8.504
	c1.523,0,2.749,1.161,2.749,2.604v12.431c0,1.442-1.226,2.603-2.749,2.603h-8.504c-1.523,0-2.749-1.16-2.749-2.603v-12.431
	C220.945,121.046,222.17,119.885,223.694,119.885z M244.259,119.885h8.504c1.523,0,2.749,1.161,2.749,2.604v12.431
	c0,1.442-1.226,2.603-2.749,2.603h-8.504c-1.523,0-2.749-1.16-2.749-2.603v-12.431C241.51,121.046,242.736,119.885,244.259,119.885z
	 M264.792,119.885h8.504c1.523,0,2.749,1.161,2.749,2.604v12.431c0,1.442-1.225,2.603-2.749,2.603h-8.504
	c-1.523,0-2.749-1.16-2.749-2.603v-12.431C262.043,121.046,263.269,119.885,264.792,119.885z M285.356,119.885h8.504
	c1.523,0,2.749,1.161,2.749,2.604v12.431c0,1.442-1.226,2.603-2.749,2.603h-8.504c-1.523,0-2.749-1.16-2.749-2.603v-12.431
	C282.608,121.046,283.833,119.885,285.356,119.885z M305.89,119.885h8.504c1.522,0,2.748,1.161,2.748,2.604v12.431
	c0,1.442-1.226,2.603-2.748,2.603h-8.504c-1.523,0-2.749-1.16-2.749-2.603v-12.431C303.141,121.046,304.366,119.885,305.89,119.885z
	 M326.454,119.885h8.504c1.523,0,2.748,1.161,2.748,2.604v12.431c0,1.442-1.225,2.603-2.748,2.603h-8.504
	c-1.523,0-2.748-1.16-2.748-2.603v-12.431C323.706,121.046,324.931,119.885,326.454,119.885z M346.987,119.885h8.504
	c1.522,0,2.748,1.161,2.748,2.604v12.431c0,1.442-1.226,2.603-2.748,2.603h-8.504c-1.523,0-2.749-1.16-2.749-2.603v-12.431
	C344.238,121.046,345.464,119.885,346.987,119.885z M367.552,119.885h8.504c1.523,0,2.748,1.161,2.748,2.604v12.431
	c0,1.442-1.225,2.603-2.748,2.603h-8.504c-1.523,0-2.748-1.16-2.748-2.603v-12.431C364.804,121.046,366.028,119.885,367.552,119.885
	z M388.085,119.885h8.504c1.522,0,2.748,1.161,2.748,2.604v12.431c0,1.442-1.226,2.603-2.748,2.603h-8.504
	c-1.523,0-2.749-1.16-2.749-2.603v-12.431C385.336,121.046,386.562,119.885,388.085,119.885z M408.649,119.885h8.504
	c1.523,0,2.748,1.161,2.748,2.604v12.431c0,1.442-1.225,2.603-2.748,2.603h-8.504c-1.523,0-2.748-1.16-2.748-2.603v-12.431
	C405.901,121.046,407.126,119.885,408.649,119.885z M429.183,119.885h8.504c1.523,0,2.748,1.161,2.748,2.604v12.431
	c0,1.442-1.225,2.603-2.748,2.603h-8.504c-1.523,0-2.749-1.16-2.749-2.603v-12.431C426.434,121.046,427.659,119.885,429.183,119.885
	z M449.747,119.885h8.472c1.523,0,2.749,1.161,2.749,2.604v12.431c0,1.442-1.226,2.603-2.749,2.603h-8.472
	c-1.523,0-2.748-1.16-2.748-2.603v-12.431C446.999,121.046,448.225,119.885,449.747,119.885z M470.28,119.885h8.504
	c1.523,0,2.748,1.161,2.748,2.604v12.431c0,1.442-1.225,2.603-2.748,2.603h-8.504c-1.523,0-2.749-1.16-2.749-2.603v-12.431
	C467.531,121.046,468.757,119.885,470.28,119.885z M490.845,119.885h8.472c1.523,0,2.749,1.161,2.749,2.604v12.431
	c0,1.442-1.226,2.603-2.749,2.603h-8.472c-1.522,0-2.748-1.16-2.748-2.603v-12.431C488.097,121.046,489.322,119.885,490.845,119.885
	z M511.378,119.885h8.504c1.523,0,2.748,1.161,2.748,2.604v12.431c0,1.442-1.225,2.603-2.748,2.603h-8.504
	c-1.523,0-2.749-1.16-2.749-2.603v-12.431C508.629,121.046,509.854,119.885,511.378,119.885z M531.942,119.885h8.472
	c1.523,0,2.749,1.161,2.749,2.604v12.431c0,1.442-1.226,2.603-2.749,2.603h-8.472c-1.522,0-2.748-1.16-2.748-2.603v-12.431
	C529.194,121.046,530.42,119.885,531.942,119.885z M552.476,119.885h8.504c1.523,0,2.748,1.161,2.748,2.604v12.431
	c0,1.442-1.225,2.603-2.748,2.603h-8.504c-1.523,0-2.749-1.16-2.749-2.603v-12.431C549.727,121.046,550.952,119.885,552.476,119.885
	z M573.008,119.885h8.505c1.522,0,2.748,1.161,2.748,2.604v12.431c0,1.442-1.226,2.603-2.748,2.603h-8.505
	c-1.522,0-2.748-1.16-2.748-2.603v-12.431C570.26,121.046,571.485,119.885,573.008,119.885z M593.573,119.885h8.504
	c1.523,0,2.749,1.161,2.749,2.604v12.431c0,1.442-1.226,2.603-2.749,2.603h-8.504c-1.522,0-2.748-1.16-2.748-2.603v-12.431
	C590.825,121.046,592.051,119.885,593.573,119.885z M614.106,119.885h8.504c1.522,0,2.748,1.161,2.748,2.604v12.431
	c0,1.442-1.226,2.603-2.748,2.603h-8.504c-1.523,0-2.749-1.16-2.749-2.603v-12.431C611.357,121.046,612.583,119.885,614.106,119.885
	z"/>
</svg>
